<svg width="614" height="582" viewBox="0 0 614 582" fill="none" xmlns="http://www.w3.org/2000/svg">
<rect x="477" y="174.847" width="96" height="140" rx="48" transform="rotate(-15 477 174.847)" fill="#787878"/>
<circle cx="555.802" cy="224.801" r="48" transform="rotate(-13.3746 555.802 224.801)" fill="#3F3F3F"/>
<rect x="237" y="111" width="96" height="140" rx="48" transform="rotate(-90 237 111)" fill="#787878"/>
<circle cx="307" cy="48" r="48" transform="rotate(-90 307 48)" fill="#3F3F3F"/>
<rect x="72" y="482.882" width="96" height="140" rx="48" transform="rotate(-45 72 482.882)" fill="#787878"/>
<circle cx="145.707" cy="510.06" r="48" transform="rotate(-45.6489 145.707 510.06)" fill="#3F3F3F"/>
<rect x="472.995" y="415" width="96" height="140" rx="48" transform="rotate(45 472.995 415)" fill="#787878"/>
<circle cx="469.484" cy="509.291" r="48" transform="rotate(46.4872 469.484 509.291)" fill="#3F3F3F"/>
<rect x="44.235" y="150" width="96" height="140" rx="48" transform="rotate(15 44.235 150)" fill="#E7A0A0"/>
<circle cx="57.5637" cy="225.564" r="48" transform="rotate(12.9941 57.5637 225.564)" fill="#E66464"/>
<rect x="97" y="278" width="327" height="79" rx="39.5" fill="#FF2D2D"/>
<path d="M123.232 333C120.449 333 118.809 331.301 118.809 328.371V294.768C118.809 291.838 120.449 290.139 123.232 290.139C126.016 290.139 127.656 291.838 127.656 294.768V325.676H146.26V294.768C146.26 291.838 147.9 290.139 150.684 290.139C153.467 290.139 155.107 291.838 155.107 294.768V325.705H156.426C159.062 325.705 160.527 327.287 160.527 330.041V337.6C160.527 340.295 159.033 341.848 156.455 341.848C153.848 341.848 152.383 340.295 152.383 337.6V333H123.232ZM173.945 333.498C167.969 333.498 163.428 329.631 163.428 323.977C163.428 318.264 167.822 314.953 175.674 314.484L183.584 314.016V311.936C183.584 309.006 181.533 307.307 178.311 307.307C175.703 307.307 174.121 308.156 172.217 310.617C171.279 311.672 170.195 312.199 168.818 312.199C166.738 312.199 165.244 310.852 165.244 308.918C165.244 308.244 165.391 307.629 165.684 306.984C167.148 303.234 172.188 300.92 178.691 300.92C186.748 300.92 191.992 305.08 191.992 311.408V329.309C191.992 332.15 190.264 333.615 187.832 333.615C185.518 333.615 183.906 332.326 183.73 329.807V328.195H183.555C181.797 331.535 177.871 333.498 173.945 333.498ZM176.758 327.316C180.508 327.316 183.584 324.885 183.584 321.486V319.201L176.963 319.611C173.77 319.846 171.953 321.281 171.953 323.508C171.953 325.852 173.887 327.316 176.758 327.316ZM202.305 333.615C199.668 333.615 198.057 332.004 198.057 329.338V306.193C198.057 303.293 199.697 301.594 202.48 301.594H217.334C219.062 301.594 220.469 302.795 220.469 304.816C220.469 306.838 219.062 308.039 217.334 308.039H206.582V329.338C206.582 332.004 204.941 333.615 202.305 333.615ZM233.418 333.498C227.441 333.498 222.9 329.631 222.9 323.977C222.9 318.264 227.295 314.953 235.146 314.484L243.057 314.016V311.936C243.057 309.006 241.006 307.307 237.783 307.307C235.176 307.307 233.594 308.156 231.689 310.617C230.752 311.672 229.668 312.199 228.291 312.199C226.211 312.199 224.717 310.852 224.717 308.918C224.717 308.244 224.863 307.629 225.156 306.984C226.621 303.234 231.66 300.92 238.164 300.92C246.221 300.92 251.465 305.08 251.465 311.408V329.309C251.465 332.15 249.736 333.615 247.305 333.615C244.99 333.615 243.379 332.326 243.203 329.807V328.195H243.027C241.27 331.535 237.344 333.498 233.418 333.498ZM236.23 327.316C239.98 327.316 243.057 324.885 243.057 321.486V319.201L236.436 319.611C233.242 319.846 231.426 321.281 231.426 323.508C231.426 325.852 233.359 327.316 236.23 327.316ZM266.816 333.498C260.84 333.498 256.299 329.631 256.299 323.977C256.299 318.264 260.693 314.953 268.545 314.484L276.455 314.016V311.936C276.455 309.006 274.404 307.307 271.182 307.307C268.574 307.307 266.992 308.156 265.088 310.617C264.15 311.672 263.066 312.199 261.689 312.199C259.609 312.199 258.115 310.852 258.115 308.918C258.115 308.244 258.262 307.629 258.555 306.984C260.02 303.234 265.059 300.92 271.562 300.92C279.619 300.92 284.863 305.08 284.863 311.408V329.309C284.863 332.15 283.135 333.615 280.703 333.615C278.389 333.615 276.777 332.326 276.602 329.807V328.195H276.426C274.668 331.535 270.742 333.498 266.816 333.498ZM269.629 327.316C273.379 327.316 276.455 324.885 276.455 321.486V319.201L269.834 319.611C266.641 319.846 264.824 321.281 264.824 323.508C264.824 325.852 266.758 327.316 269.629 327.316ZM295.176 333.615C292.539 333.615 290.928 331.945 290.928 329.162V305.432C290.928 302.648 292.539 300.949 295.176 300.949C297.842 300.949 299.453 302.648 299.453 305.432V313.664H311.523V305.432C311.523 302.648 313.135 300.949 315.771 300.949C318.438 300.949 320.049 302.648 320.049 305.432V329.162C320.049 331.945 318.438 333.615 315.771 333.615C313.135 333.615 311.523 331.945 311.523 329.162V320.139H299.453V329.162C299.453 331.945 297.842 333.615 295.176 333.615ZM343.428 344.631C339.678 344.631 337.656 343.195 337.656 340.617C337.656 338.889 338.857 337.805 340.791 337.805C341.377 337.805 341.699 337.834 342.285 337.834C343.779 337.834 345.391 337.189 346.416 334.992L346.855 333.879L336.836 307.453C336.514 306.574 336.338 305.637 336.338 304.934C336.338 302.619 338.242 300.949 340.762 300.949C343.018 300.949 344.189 301.916 344.893 304.406L351.719 326.145H351.865L358.691 304.348C359.395 301.975 360.625 300.949 362.822 300.949C365.283 300.949 366.982 302.561 366.982 304.816C366.982 305.52 366.807 306.516 366.514 307.336L356.875 333.527C353.945 341.643 350.312 344.631 343.428 344.631ZM384.619 333.674C375.156 333.674 369.15 327.463 369.15 317.297C369.15 307.248 375.156 300.92 384.561 300.92C390.859 300.92 396.104 303.967 397.803 308.42C398.125 309.152 398.301 309.914 398.301 310.529C398.301 312.639 396.631 313.869 394.639 313.869C392.939 313.869 391.914 313.195 391.006 311.643C389.482 308.889 387.578 307.629 384.824 307.629C380.488 307.629 377.822 311.203 377.822 317.268C377.822 323.449 380.488 326.965 384.795 326.965C387.783 326.965 389.6 325.5 390.947 323.273C392.061 321.486 393.027 320.754 394.844 320.754C396.807 320.754 398.418 322.072 398.418 324.182C398.418 324.855 398.271 325.559 397.861 326.408C395.986 330.686 390.625 333.674 384.619 333.674Z" fill="white"/>
<path d="M98.5 286C100.157 295.423 98.5 310.5 98.5 310.5L120 283.5C120 283.5 116.488 277.164 112.5 273C106.255 266.479 91 264.5 91 264.5C91 264.5 96.9604 277.242 98.5 286Z" fill="#FF2D2D"/>
</svg>
