<svg width="375" height="193" viewBox="0 0 375 193" fill="none" xmlns="http://www.w3.org/2000/svg">
<path d="M12.5002 13.0013C13.3245 21.776 19.6352 22.6401 19.6352 22.6401C19.6352 22.6401 25 20.591 24.0001 12.0022C23.1851 5.00098 17.0002 0.00218552 17.0002 0.00218552C17.0002 0.00218552 11.8426 6.00094 12.5002 13.0013Z" fill="white" fill-opacity="0.6"/>
<path d="M26.6773 19.2325C21.7711 26.5539 26.1159 31.2116 26.1159 31.2116C26.1159 31.2116 31.5686 33.0137 36.2214 25.7254C40.0141 19.7843 38.3796 12.0017 38.3796 12.0017C38.3796 12.0017 30.5915 13.3915 26.6773 19.2325Z" fill="white" fill-opacity="0.6"/>
<path d="M31.2396 33.1673C26.7059 40.7251 31.2784 45.1595 31.2784 45.1595C31.2784 45.1595 36.8144 46.6865 41.0966 39.1745C44.5872 33.0511 42.5654 25.3599 42.5654 25.3599C42.5654 25.3599 34.8566 27.1377 31.2396 33.1673Z" fill="white" fill-opacity="0.6"/>
<path d="M37.2035 47.8167C33.3798 56.9019 39.144 61.0881 39.144 61.0881C39.144 61.0881 45.515 61.9027 49.0675 52.9079C51.9632 45.5759 48.5076 37.3804 48.5076 37.3804C48.5076 37.3804 40.254 40.5686 37.2035 47.8167Z" fill="white" fill-opacity="0.6"/>
<path d="M45.2856 62.7028C41.4977 73.9763 48.8079 78.4974 48.8079 78.4974C48.8079 78.4974 56.5465 78.9076 60.0161 67.7672C62.8443 58.6861 57.9532 49.1343 57.9532 49.1343C57.9532 49.1343 48.3076 53.7088 45.2856 62.7028Z" fill="white" fill-opacity="0.6"/>
<path d="M59.1833 80.7844C56.4504 93.9096 65.2373 97.9931 65.2373 97.9931C65.2373 97.9931 73.9542 97.4178 76.3487 84.484C78.3005 73.9411 71.5489 63.9032 71.5489 63.9032C71.5489 63.9032 61.3636 70.3131 59.1833 80.7844Z" fill="white" fill-opacity="0.6"/>
<path d="M77.1821 98.4614C76.0911 113.359 86.3952 116.578 86.3952 116.578C86.3952 116.578 95.9379 114.663 96.6833 100.027C97.2908 88.0964 88.3602 78.0018 88.3602 78.0018C88.3602 78.0018 78.0526 86.5765 77.1821 98.4614Z" fill="white" fill-opacity="0.6"/>
<path d="M95.9241 115.54C98.0937 132.077 110.089 133.272 110.089 133.272C110.089 133.272 120.092 129.023 117.603 112.85C115.574 99.6659 103.53 90.6427 103.53 90.6427C103.53 90.6427 94.1932 102.346 95.9241 115.54Z" fill="white" fill-opacity="0.6"/>
<path d="M126.682 128.691C131.575 145.398 144.138 144.704 144.138 144.704C144.138 144.704 153.772 138.716 148.608 122.436C144.398 109.165 130.527 101.794 130.527 101.794C130.527 101.794 122.778 115.363 126.682 128.691Z" fill="white" fill-opacity="0.6"/>
<path d="M159.334 137.16C167.028 152.776 179.283 149.932 179.283 149.932C179.283 149.932 187.744 142.376 179.857 127.227C173.428 114.878 158.496 110.002 158.496 110.002C158.496 110.002 153.196 124.702 159.334 137.16Z" fill="white" fill-opacity="0.6"/>
<path d="M21.4244 70.6293C32.5217 74.2541 36.8991 67.0411 36.8991 67.0411C36.8991 67.0411 37.2376 59.4416 26.2736 56.1282C17.3363 53.4272 8.00094 58.3072 8.00094 58.3072C8.00094 58.3072 12.571 67.7374 21.4244 70.6293Z" fill="white" fill-opacity="0.6"/>
<path d="M29.4488 90.5446C42.4959 93.7763 46.9175 85.1266 46.9175 85.1266C46.9175 85.1266 46.669 76.3717 33.801 73.4863C23.3118 71.1342 13.0012 77.5209 13.0012 77.5209C13.0012 77.5209 19.0399 87.9664 29.4488 90.5446Z" fill="white" fill-opacity="0.6"/>
<path d="M44.5146 113.149C59.8755 115.177 63.8302 104.7 63.8302 104.7C63.8302 104.7 62.4215 94.7029 47.3103 93.0495C34.9924 91.7018 24.001 100.342 24.001 100.342C24.001 100.342 32.2597 111.532 44.5146 113.149Z" fill="white" fill-opacity="0.6"/>
<path d="M66.6 136.363C83.6888 136.88 86.8657 124.94 86.8657 124.94C86.8657 124.94 84.2078 114.121 67.4346 113.986C53.762 113.876 42.656 124.583 42.656 124.583C42.656 124.583 52.9665 135.95 66.6 136.363Z" fill="white" fill-opacity="0.6"/>
<path d="M94.6215 158.228C113.288 153.766 113.22 139.895 113.22 139.895C113.22 139.895 107.16 128.956 88.9486 133.739C74.1033 137.639 65.2182 152.503 65.2182 152.503C65.2182 152.503 79.7297 161.787 94.6215 158.228Z" fill="white" fill-opacity="0.6"/>
<path d="M128.802 172.38C146.987 166.242 145.661 152.435 145.661 152.435C145.661 152.435 138.634 142.091 120.931 148.507C106.501 153.737 99.0009 169.347 99.0009 169.347C99.0009 169.347 114.295 177.276 128.802 172.38Z" fill="white" fill-opacity="0.6"/>
<path d="M171.346 180.256C187.795 170.368 183.544 157.165 183.544 157.165C183.544 157.165 174.465 148.564 158.547 158.622C145.571 166.82 141.586 183.673 141.586 183.673C141.586 183.673 158.223 188.144 171.346 180.256Z" fill="white" fill-opacity="0.6"/>
<path d="M9.69807 36.3516C18.2616 40.8425 22.685 35.4821 22.685 35.4821C22.685 35.4821 23.8789 29.2569 15.3858 25.0409C8.46272 21.6042 0.299649 24.3694 0.299649 24.3694C0.299649 24.3694 2.86612 32.7687 9.69807 36.3516Z" fill="white" fill-opacity="0.6"/>
<path d="M15.6778 51.8686C24.437 55.9648 28.6116 50.4084 28.6116 50.4084C28.6116 50.4084 29.5207 44.1353 20.8444 40.3105C13.7719 37.1928 5.74328 40.3271 5.74328 40.3271C5.74328 40.3271 8.68975 48.6007 15.6778 51.8686Z" fill="white" fill-opacity="0.6"/>
<path d="M361.934 13.0004C361.11 21.775 354.799 22.6392 354.799 22.6392C354.799 22.6392 349.434 20.59 350.434 12.0012C351.249 5 357.434 0.00120895 357.434 0.00120895C357.434 0.00120895 362.591 5.99996 361.934 13.0004Z" fill="white" fill-opacity="0.6"/>
<path d="M347.757 19.2315C352.663 26.5529 348.318 31.2106 348.318 31.2106C348.318 31.2106 342.865 33.0127 338.213 25.7244C334.42 19.7833 336.054 12.0007 336.054 12.0007C336.054 12.0007 343.843 13.3905 347.757 19.2315Z" fill="white" fill-opacity="0.6"/>
<path d="M343.194 33.1663C347.728 40.7241 343.156 45.1585 343.156 45.1585C343.156 45.1585 337.62 46.6855 333.337 39.1735C329.847 33.0501 331.869 25.359 331.869 25.359C331.869 25.359 339.577 27.1368 343.194 33.1663Z" fill="white" fill-opacity="0.6"/>
<path d="M337.231 47.8158C341.054 56.9009 335.29 61.0871 335.29 61.0871C335.29 61.0871 328.919 61.9017 325.367 52.9069C322.471 45.5749 325.926 37.3794 325.926 37.3794C325.926 37.3794 334.18 40.5676 337.231 47.8158Z" fill="white" fill-opacity="0.6"/>
<path d="M329.148 62.7018C332.936 73.9753 325.626 78.4965 325.626 78.4965C325.626 78.4965 317.888 78.9067 314.418 67.7662C311.59 58.6851 316.481 49.1333 316.481 49.1333C316.481 49.1333 326.126 53.7078 329.148 62.7018Z" fill="white" fill-opacity="0.6"/>
<path d="M315.251 80.7834C317.984 93.9086 309.197 97.9922 309.197 97.9922C309.197 97.9922 300.48 97.4168 298.085 84.483C296.134 73.9401 302.885 63.9023 302.885 63.9023C302.885 63.9023 313.07 70.3121 315.251 80.7834Z" fill="white" fill-opacity="0.6"/>
<path d="M297.252 98.4605C298.343 113.358 288.039 116.577 288.039 116.577C288.039 116.577 278.496 114.662 277.751 100.026C277.143 88.0954 286.074 78.0008 286.074 78.0008C286.074 78.0008 296.382 86.5755 297.252 98.4605Z" fill="white" fill-opacity="0.6"/>
<path d="M278.51 115.539C276.34 132.076 264.346 133.271 264.346 133.271C264.346 133.271 254.342 129.022 256.831 112.849C258.86 99.6649 270.904 90.6417 270.904 90.6417C270.904 90.6417 280.241 102.345 278.51 115.539Z" fill="white" fill-opacity="0.6"/>
<path d="M247.752 128.69C242.859 145.397 230.296 144.703 230.296 144.703C230.296 144.703 220.663 138.715 225.827 122.435C230.036 109.164 243.907 101.793 243.907 101.793C243.907 101.793 251.656 115.362 247.752 128.69Z" fill="white" fill-opacity="0.6"/>
<path d="M215.1 137.159C207.406 152.775 195.151 149.931 195.151 149.931C195.151 149.931 186.69 142.375 194.577 127.226C201.006 114.877 215.938 110.001 215.938 110.001C215.938 110.001 221.238 124.701 215.1 137.159Z" fill="white" fill-opacity="0.6"/>
<path d="M353.01 70.6283C341.912 74.2531 337.535 67.0402 337.535 67.0402C337.535 67.0402 337.196 59.4407 348.16 56.1272C357.098 53.4262 366.433 58.3063 366.433 58.3063C366.433 58.3063 361.863 67.7364 353.01 70.6283Z" fill="white" fill-opacity="0.6"/>
<path d="M344.985 90.5436C331.938 93.7754 327.517 85.1256 327.517 85.1256C327.517 85.1256 327.765 76.3707 340.633 73.4853C351.122 71.1332 361.433 77.5199 361.433 77.5199C361.433 77.5199 355.394 87.9654 344.985 90.5436Z" fill="white" fill-opacity="0.6"/>
<path d="M329.92 113.148C314.559 115.176 310.604 104.699 310.604 104.699C310.604 104.699 312.013 94.7019 327.124 93.0485C339.442 91.7008 350.433 100.341 350.433 100.341C350.433 100.341 342.174 111.531 329.92 113.148Z" fill="white" fill-opacity="0.6"/>
<path d="M307.834 136.362C290.745 136.879 287.568 124.939 287.568 124.939C287.568 124.939 290.226 114.12 306.999 113.985C320.672 113.875 331.778 124.582 331.778 124.582C331.778 124.582 321.468 135.949 307.834 136.362Z" fill="white" fill-opacity="0.6"/>
<path d="M279.813 158.227C261.146 153.765 261.214 139.894 261.214 139.894C261.214 139.894 267.274 128.955 285.485 133.738C300.331 137.638 309.216 152.502 309.216 152.502C309.216 152.502 294.704 161.787 279.813 158.227Z" fill="white" fill-opacity="0.6"/>
<path d="M245.632 172.379C227.447 166.242 228.774 152.434 228.774 152.434C228.774 152.434 235.801 142.09 253.503 148.506C267.933 153.736 275.433 169.346 275.433 169.346C275.433 169.346 260.139 177.275 245.632 172.379Z" fill="white" fill-opacity="0.6"/>
<path d="M203.088 180.255C186.639 170.367 190.89 157.164 190.89 157.164C190.89 157.164 199.969 148.563 215.887 158.621C228.863 166.819 232.848 183.672 232.848 183.672C232.848 183.672 216.211 188.143 203.088 180.255Z" fill="white" fill-opacity="0.6"/>
<path d="M364.736 36.3506C356.173 40.8415 351.749 35.4812 351.749 35.4812C351.749 35.4812 350.555 29.256 359.048 25.0399C365.971 21.6032 374.134 24.3684 374.134 24.3684C374.134 24.3684 371.568 32.7677 364.736 36.3506Z" fill="white" fill-opacity="0.6"/>
<path d="M358.756 51.8676C349.997 55.9638 345.822 50.4075 345.822 50.4075C345.822 50.4075 344.913 44.1343 353.59 40.3096C360.662 37.1918 368.691 40.3261 368.691 40.3261C368.691 40.3261 365.744 48.5997 358.756 51.8676Z" fill="white" fill-opacity="0.6"/>
</svg>
