<svg width="24" height="24" viewBox="0 0 24 24" fill="none" xmlns="http://www.w3.org/2000/svg">
<path d="M15.0615 3.35156C15.2764 3.55263 15.4734 3.78289 15.6494 4.04688C16.4537 5.25366 16.75 7.02053 16.75 9.2998V14.7002C16.75 16.9795 16.4537 18.7463 15.6494 19.9531C15.4736 20.2169 15.2762 20.4465 15.0615 20.6475C16.0075 20.4525 16.7802 19.9665 17.3232 19.0977C17.9188 18.1448 18.1819 16.8135 18.2383 15.1387L18.25 14.4004V9.59961C18.25 7.57428 18.0038 5.99129 17.3232 4.90234C16.7801 4.03348 16.0076 3.54654 15.0615 3.35156Z" fill="black"/>
<path d="M18.7578 5.68359C19.113 6.69622 19.25 8.0077 19.25 9.59961V14.4004L19.2393 15.1367C19.1964 16.5499 19.0201 17.7119 18.6445 18.6084C18.6841 18.5907 18.7239 18.5735 18.7627 18.5537C19.2147 18.3226 19.5675 17.9718 19.8291 17.5234C20.3295 16.6657 20.5 15.4416 20.5 13.9199V10.3203C20.5 8.7986 20.3295 7.57458 19.8291 6.7168C19.5675 6.26844 19.2147 5.91766 18.7627 5.68652C18.761 5.68566 18.7595 5.68445 18.7578 5.68359Z" fill="black"/>
<path d="M10.8 21H7.2C4.2 21 3 19.2 3 14.7V9.3C3 4.8 4.2 3 7.2 3H10.8C13.8 3 15 4.8 15 9.3V14.7C15 19.2 13.8 21 10.8 21Z" stroke="black" stroke-width="1.5" stroke-linecap="round" stroke-linejoin="round"/>
</svg>
